<?xml version="1.0" standalone="no"?>
<!DOCTYPE svg PUBLIC "-//W3C//DTD SVG 20010904//EN"
 "http://www.w3.org/TR/2001/REC-SVG-20010904/DTD/svg10.dtd">
<svg version="1.0" xmlns="http://www.w3.org/2000/svg"
 width="300.000000pt" height="301.000000pt" viewBox="0 0 300.000000 301.000000"
 preserveAspectRatio="xMidYMid meet">
<metadata>
Created by potrace 1.10, written by Peter Selinger 2001-2011
</metadata>
<g transform="translate(0.000000,301.000000) scale(0.100000,-0.100000)"
fill="#000000" stroke="none">
<path d="M1359 2796 c-2 -2 -30 -7 -62 -11 -171 -19 -399 -115 -567 -238 -92
-68 -222 -207 -291 -312 -250 -379 -287 -827 -103 -1238 24 -53 44 -105 44
-115 0 -9 -34 -141 -75 -292 -41 -151 -75 -281 -74 -290 0 -15 68 221 134 467
l36 132 -39 78 c-87 172 -125 341 -124 553 0 270 59 467 209 700 67 103 238
276 338 342 339 221 727 276 1098 154 444 -146 765 -515 848 -975 86 -477
-116 -971 -513 -1251 -152 -108 -342 -186 -523 -216 -131 -21 -364 -14 -480
15 -96 23 -212 64 -277 97 l-48 24 -317 -82 c-175 -46 -308 -84 -296 -86 19
-3 145 26 323 73 30 8 106 28 169 45 l115 30 90 -39 c173 -73 348 -111 513
-111 536 0 1018 333 1200 830 39 106 48 137 65 225 17 91 16 393 -1 455 -7 25
-15 56 -18 70 -2 14 -17 64 -33 112 -146 436 -540 768 -1000 843 -84 13 -330
21 -341 11z"/>
<path d="M1372 2569 c-347 -40 -654 -256 -812 -568 -76 -151 -100 -251 -107
-436 -4 -127 -2 -165 16 -248 24 -114 65 -221 121 -318 l41 -69 -46 -167 c-25
-93 -50 -178 -55 -190 -7 -17 -6 -23 3 -23 6 0 95 23 197 50 l184 49 111 -54
c381 -190 810 -138 1143 136 152 125 285 339 339 544 22 87 26 120 26 255 0
136 -4 168 -27 255 -114 432 -468 738 -911 785 -102 11 -121 11 -223 -1z m328
-45 c230 -47 439 -177 594 -367 83 -103 173 -307 197 -447 15 -93 15 -274 -1
-360 -35 -192 -126 -372 -257 -511 -252 -266 -613 -377 -970 -298 -73 16 -135
40 -239 91 l-101 51 -124 -31 c-68 -17 -143 -36 -167 -43 -23 -6 -45 -9 -48
-7 -5 6 2 41 41 183 39 142 40 150 17 187 -98 159 -150 323 -159 505 -12 248
55 468 203 668 228 307 630 458 1014 379z"/>
<path d="M1000 2132 c-61 -28 -123 -102 -156 -187 -28 -72 -25 -209 6 -290 26
-69 98 -188 167 -278 46 -60 206 -226 248 -257 11 -8 37 -27 56 -42 57 -43
188 -105 305 -145 95 -32 122 -37 204 -37 86 -1 100 2 154 29 118 60 176 145
176 260 0 41 -5 56 -22 73 -37 34 -279 146 -317 146 -35 0 -50 -13 -129 -112
-19 -23 -40 -42 -48 -42 -41 0 -207 96 -269 157 -59 57 -121 133 -143 174 -24
45 -24 44 26 99 30 32 52 73 54 103 2 19 -19 85 -53 162 -77 181 -91 195 -183
194 -33 0 -68 -3 -76 -7z m154 -41 c24 -27 126 -270 126 -301 0 -28 -16 -55
-67 -113 -18 -20 -33 -46 -33 -56 0 -24 64 -120 129 -192 76 -86 285 -219 342
-219 9 0 47 39 84 86 61 76 71 85 94 79 14 -3 87 -36 161 -73 l135 -67 3 -42
c10 -130 -102 -248 -255 -267 -95 -12 -281 40 -444 125 -229 119 -507 448
-564 666 -20 76 -19 129 4 202 21 66 81 155 121 176 39 22 143 19 164 -4z"/>
</g>
</svg>
