<svg version="1.1" id="Layer_1" xmlns="http://www.w3.org/2000/svg" xmlns:xlink="http://www.w3.org/1999/xlink" x="0px" y="0px"
	 width="100%" viewBox="0 0 3840 2160" enable-background="new 0 0 3840 2160" xml:space="preserve">
<path fill="#000000" opacity="1.000000" stroke="none" 
	d="
M2506.000000,2162.000000 
	C1670.666870,2162.000000 836.333618,2162.000000 2.000336,2162.000000 
	C2.000224,1442.000244 2.000224,722.000549 2.000112,2.000626 
	C1281.999512,2.000417 2561.999023,2.000417 3841.999023,2.000209 
	C3841.999268,721.999329 3841.999268,1441.998657 3841.999512,2161.999023 
	C3397.000000,2162.000000 2952.000000,2162.000000 2506.000000,2162.000000 
M2147.248291,1315.011353 
	C2160.866455,1302.620728 2172.614014,1288.613037 2180.652832,1272.056763 
	C2185.956299,1261.134399 2189.533936,1249.374146 2194.269043,1237.247070 
	C2194.269043,1237.247070 2194.154297,1236.419189 2195.091553,1235.420044 
	C2195.339355,1233.630371 2195.587158,1231.840698 2196.604248,1228.656250 
	C2197.649658,1222.190552 2199.501709,1215.736572 2199.596924,1209.256958 
	C2199.964111,1184.202515 2199.770996,1159.140015 2200.158936,1132.222290 
	C2200.046875,1120.724487 2199.934814,1109.226685 2200.168457,1096.179565 
	C2200.189209,1054.231445 2200.362305,1012.282776 2200.190430,970.335449 
	C2199.987061,920.761047 2180.898438,879.640442 2143.858398,846.835510 
	C2112.999023,819.504395 2076.901855,805.803284 2035.651978,805.796509 
	C1960.743896,805.784241 1885.835938,805.776978 1810.927856,805.812622 
	C1807.293335,805.814331 1803.659180,806.246338 1798.304688,806.405518 
	C1767.216797,808.790894 1738.883789,818.449463 1713.101929,838.720093 
	C1695.978027,850.658997 1682.700806,866.185547 1671.868530,883.811035 
	C1663.360840,897.654175 1655.821655,912.024597 1651.940674,929.574646 
	C1647.772827,946.880432 1645.169922,964.328125 1646.713379,983.550354 
	C1646.380737,989.424316 1646.048096,995.298218 1644.635986,1001.966919 
	C1644.416260,1008.723145 1644.196533,1015.479309 1643.881470,1024.301270 
	C1643.866333,1035.221558 1643.839478,1046.141968 1643.838867,1057.062256 
	C1643.837891,1071.989014 1643.648071,1086.919434 1643.920288,1101.841431 
	C1644.262817,1120.629517 1644.928101,1139.412476 1645.569214,1158.193848 
	C1646.179565,1176.078613 1646.737915,1193.968872 1647.679199,1211.837769 
	C1649.039062,1237.655151 1657.814697,1261.249268 1671.787964,1282.604370 
	C1680.820190,1296.408203 1688.527832,1310.837158 1696.491089,1325.192261 
	C1698.492798,1328.800903 1701.474609,1331.948608 1704.360962,1334.969116 
	C1714.512817,1345.592529 1726.413330,1353.486694 1740.308350,1358.611816 
	C1747.441406,1361.242920 1754.260620,1363.820068 1762.083862,1362.641724 
	C1768.736084,1361.639771 1775.473022,1360.942383 1782.193237,1360.710205 
	C1792.475464,1360.354858 1802.775635,1360.517334 1813.068115,1360.457153 
	C1857.932617,1360.195190 1902.796875,1359.898315 1947.661621,1359.694824 
	C1957.959961,1359.648071 1968.265869,1360.210327 1978.557495,1359.990112 
	C2004.435303,1359.436279 2030.307007,1358.595581 2057.800049,1358.167969 
	C2062.333740,1357.336182 2066.909912,1356.687256 2071.394043,1355.642822 
	C2099.898926,1349.002808 2125.236084,1336.420654 2147.248291,1315.011353 
z"/>
<path fill="#FC9039" opacity="1.000000" stroke="none" 
	d="
M2056.181152,1357.869873 
	C2030.307007,1358.595581 2004.435303,1359.436279 1978.557495,1359.990112 
	C1968.265869,1360.210327 1957.959961,1359.648071 1947.661621,1359.694824 
	C1902.796875,1359.898315 1857.932617,1360.195190 1813.068115,1360.457153 
	C1802.775635,1360.517334 1792.475464,1360.354858 1782.193237,1360.710205 
	C1775.473022,1360.942383 1768.736084,1361.639771 1762.083862,1362.641724 
	C1754.260620,1363.820068 1747.441406,1361.242920 1740.308350,1358.611816 
	C1726.413330,1353.486694 1714.512817,1345.592529 1704.360962,1334.969116 
	C1701.474609,1331.948608 1698.492798,1328.800903 1696.491089,1325.192261 
	C1688.527832,1310.837158 1680.820190,1296.408203 1671.787964,1282.604370 
	C1657.814697,1261.249268 1649.039062,1237.655151 1647.679199,1211.837769 
	C1646.737915,1193.968872 1646.179565,1176.078613 1645.569214,1158.193848 
	C1644.928101,1139.412476 1644.262817,1120.629517 1643.920288,1101.841431 
	C1643.648071,1086.919434 1643.837891,1071.989014 1643.838867,1057.062256 
	C1643.839478,1046.141968 1643.866333,1035.221558 1644.133301,1023.325928 
	C1644.763916,1022.095337 1645.174316,1021.924133 1645.833374,1022.539612 
	C1646.676025,1044.859009 1647.335205,1066.475098 1647.907715,1088.093262 
	C1648.083984,1094.752686 1648.153320,1101.420776 1648.030518,1108.080444 
	C1647.933838,1113.321899 1650.040161,1116.363159 1654.856079,1118.976074 
	C1669.473022,1126.906128 1683.547485,1135.836182 1698.169678,1143.755859 
	C1703.564087,1146.677490 1709.895874,1147.868164 1715.956055,1150.773926 
	C1716.345703,1170.867554 1717.206787,1189.969604 1724.385620,1208.091064 
	C1739.068115,1245.153931 1765.165161,1270.497314 1803.040405,1283.097412 
	C1812.632324,1286.288574 1822.856079,1287.580811 1832.745850,1289.730591 
	C1832.702393,1289.715576 1832.559570,1289.588501 1833.586426,1289.629395 
	C1848.893188,1289.696899 1863.173218,1289.690674 1877.452881,1289.757080 
	C1904.343872,1289.882202 1931.234619,1290.049316 1958.166382,1290.908203 
	C1958.459961,1296.225098 1961.653198,1298.620483 1965.173950,1300.665283 
	C1974.036743,1305.812744 1982.978027,1310.825195 1991.830933,1315.989380 
	C2011.045532,1327.197998 2030.302124,1338.339722 2049.334717,1349.850830 
	C2052.189453,1351.577393 2053.926758,1355.150757 2056.181152,1357.869873 
z"/>
<path fill="#CE1B90" opacity="1.000000" stroke="none" 
	d="
M1800.024780,806.477966 
	C1803.659180,806.246338 1807.293335,805.814331 1810.927856,805.812622 
	C1885.835938,805.776978 1960.743896,805.784241 2035.651978,805.796509 
	C2076.901855,805.803284 2112.999023,819.504395 2143.858398,846.835510 
	C2180.898438,879.640442 2199.987061,920.761047 2200.190430,970.335449 
	C2200.362305,1012.282776 2200.189209,1054.231445 2199.615234,1096.258789 
	C2198.747314,1092.716064 2198.208984,1089.097046 2198.160889,1085.471558 
	C2198.019531,1074.824951 2197.894043,1064.171753 2198.123291,1053.529053 
	C2198.242676,1047.980591 2196.536865,1044.265869 2191.451172,1041.369873 
	C2175.307861,1032.177979 2159.475342,1022.441162 2143.394287,1013.136780 
	C2141.090332,1011.803650 2138.078857,1011.693237 2136.050781,1011.182312 
	C2133.978760,1015.614685 2132.492676,1018.793701 2130.812988,1021.056885 
	C2130.586670,1015.476379 2130.342285,1010.801941 2130.556885,1006.148743 
	C2131.624023,983.026550 2126.083252,961.335754 2115.297363,941.159912 
	C2106.465332,924.639465 2095.334473,909.755188 2078.363281,900.521606 
	C2074.983398,898.028381 2071.788330,895.073303 2068.114502,892.944580 
	C2046.957275,880.685791 2024.289551,874.597839 1999.667236,876.500977 
	C1993.419067,876.983948 1987.114258,876.733704 1979.749268,876.525269 
	C1973.703247,875.973755 1968.745117,875.539490 1963.783203,875.491516 
	C1939.861206,875.260315 1915.938232,875.133179 1892.342407,874.477661 
	C1894.745239,872.605042 1896.821289,871.223877 1899.975586,869.125366 
	C1896.221069,866.424500 1893.482056,864.127747 1890.449097,862.325256 
	C1871.057617,850.800842 1851.423218,839.673950 1832.236084,827.821594 
	C1821.291626,821.060974 1809.009888,816.219788 1800.024780,806.477966 
z"/>
<path fill="#FB0461" opacity="1.000000" stroke="none" 
	d="
M1652.373169,928.140686 
	C1655.821655,912.024597 1663.360840,897.654175 1671.868530,883.811035 
	C1682.700806,866.185547 1695.978027,850.658997 1714.500977,838.516968 
	C1724.301147,839.297607 1732.196533,841.218689 1737.694580,848.557007 
	C1738.807983,850.042969 1740.805298,851.108276 1742.612549,851.793640 
	C1754.811401,856.419617 1765.945801,862.825500 1776.255371,870.823303 
	C1779.352905,873.226257 1783.068726,874.907410 1786.660645,876.576233 
	C1790.100220,878.174316 1793.266113,879.797485 1793.373291,884.514160 
	C1788.979126,886.632202 1784.852661,887.858704 1781.243774,889.969849 
	C1769.297241,896.958496 1758.996582,906.091553 1749.201904,915.776611 
	C1746.007446,918.935120 1742.617798,922.203369 1740.478882,926.064758 
	C1733.933472,937.881104 1727.952393,950.010071 1721.394775,962.548950 
	C1720.698853,964.736389 1720.359863,966.392334 1720.005249,968.029358 
	C1719.989624,968.010437 1720.035156,968.016785 1719.225586,968.009033 
	C1713.411621,966.525269 1707.946899,965.880188 1703.491821,963.412415 
	C1691.619873,956.836548 1680.347778,949.181030 1668.506714,942.544373 
	C1661.942871,938.865356 1656.654175,934.171387 1652.373169,928.140686 
z"/>
<path fill="#FB4A4B" opacity="1.000000" stroke="none" 
	d="
M1715.800171,1149.848511 
	C1709.895874,1147.868164 1703.564087,1146.677490 1698.169678,1143.755859 
	C1683.547485,1135.836182 1669.473022,1126.906128 1654.856079,1118.976074 
	C1650.040161,1116.363159 1647.933838,1113.321899 1648.030518,1108.080444 
	C1648.153320,1101.420776 1648.083984,1094.752686 1647.907715,1088.093262 
	C1647.335205,1066.475098 1646.676025,1044.859009 1645.934326,1021.658936 
	C1645.783936,1013.774475 1645.749634,1007.473328 1645.715332,1001.172180 
	C1646.048096,995.298218 1646.380737,989.424316 1647.705078,982.965210 
	C1660.650635,988.797852 1672.962769,994.641541 1684.449829,1001.807861 
	C1694.357788,1007.989014 1704.035889,1014.155640 1715.917480,1017.092041 
	C1716.111572,1043.299316 1716.188354,1068.602295 1716.144043,1093.905029 
	C1716.111450,1112.552979 1715.920532,1131.200684 1715.800171,1149.848511 
z"/>
<path fill="#FB0461" opacity="1.000000" stroke="none" 
	d="
M2194.154297,1236.419189 
	C2194.154297,1236.419189 2194.269043,1237.247070 2193.651123,1238.163330 
	C2187.811768,1244.778687 2186.418701,1245.026123 2180.718018,1241.544312 
	C2171.114990,1235.678833 2161.672852,1229.512207 2151.806152,1224.126099 
	C2142.270508,1218.920776 2132.284424,1214.541260 2122.733398,1209.031494 
	C2125.216064,1199.023438 2128.174072,1189.883423 2129.494873,1180.512451 
	C2130.676025,1172.133667 2130.051025,1163.500244 2130.258301,1154.420288 
	C2130.472900,1153.533569 2130.652100,1153.205933 2131.081055,1152.408325 
	C2131.216309,1148.856689 2131.101562,1145.774902 2130.811523,1141.726807 
	C2130.760010,1122.539185 2130.883301,1104.318115 2131.725098,1086.124878 
	C2135.587402,1087.097046 2138.840820,1087.777466 2141.856689,1089.030518 
	C2156.303467,1095.032593 2168.919922,1104.162354 2182.234863,1112.147095 
	C2191.524170,1117.717896 2199.433594,1122.282715 2199.786621,1134.080444 
	C2199.770996,1159.140015 2199.964111,1184.202515 2199.596924,1209.256958 
	C2199.501709,1215.736572 2197.649658,1222.190552 2195.849121,1229.914551 
	C2194.780762,1232.921631 2194.467529,1234.670410 2194.154297,1236.419189 
z"/>
<path fill="#FB4A4B" opacity="1.000000" stroke="none" 
	d="
M2056.990723,1358.018921 
	C2053.926758,1355.150757 2052.189453,1351.577393 2049.334717,1349.850830 
	C2030.302124,1338.339722 2011.045532,1327.197998 1991.830933,1315.989380 
	C1982.978027,1310.825195 1974.036743,1305.812744 1965.173950,1300.665283 
	C1961.653198,1298.620483 1958.459961,1296.225098 1959.088257,1290.715576 
	C1970.775879,1289.767090 1981.582397,1289.720703 1992.805664,1289.688843 
	C2000.282227,1289.320435 2007.342163,1288.937378 2015.236572,1288.465088 
	C2018.565796,1288.663696 2021.237671,1289.680054 2023.527100,1289.123413 
	C2041.226929,1284.820068 2058.539551,1279.394165 2074.812744,1270.221680 
	C2077.172119,1272.072510 2078.815674,1273.831665 2080.812500,1274.970825 
	C2100.148193,1286.000488 2119.607910,1296.814331 2138.851074,1308.001709 
	C2141.742676,1309.682861 2143.699951,1312.971191 2146.089600,1315.516113 
	C2125.236084,1336.420654 2099.898926,1349.002808 2071.394043,1355.642822 
	C2066.909912,1356.687256 2062.333740,1357.336182 2056.990723,1358.018921 
z"/>
<path fill="#E50E7A" opacity="1.000000" stroke="none" 
	d="
M1793.878052,884.027832 
	C1793.266113,879.797485 1790.100220,878.174316 1786.660645,876.576233 
	C1783.068726,874.907410 1779.352905,873.226257 1776.255371,870.823303 
	C1765.945801,862.825500 1754.811401,856.419617 1742.612549,851.793640 
	C1740.805298,851.108276 1738.807983,850.042969 1737.694580,848.557007 
	C1732.196533,841.218689 1724.301147,839.297607 1715.135986,838.255127 
	C1738.883789,818.449463 1767.216797,808.790894 1799.164795,806.441772 
	C1809.009888,816.219788 1821.291626,821.060974 1832.236084,827.821594 
	C1851.423218,839.673950 1871.057617,850.800842 1890.449097,862.325256 
	C1893.482056,864.127747 1896.221069,866.424500 1899.975586,869.125366 
	C1896.821289,871.223877 1894.745239,872.605042 1891.420410,874.668457 
	C1881.888306,875.384094 1873.601440,875.588074 1865.322266,875.418457 
	C1841.092163,874.922058 1817.010010,875.483521 1793.878052,884.027832 
z"/>
<path fill="#FB1D56" opacity="1.000000" stroke="none" 
	d="
M2146.668945,1315.263672 
	C2143.699951,1312.971191 2141.742676,1309.682861 2138.851074,1308.001709 
	C2119.607910,1296.814331 2100.148193,1286.000488 2080.812500,1274.970825 
	C2078.815674,1273.831665 2077.172119,1272.072510 2075.169678,1269.696045 
	C2083.649658,1261.096069 2093.082275,1254.083496 2100.795410,1245.522095 
	C2109.185547,1236.208984 2116.808105,1225.947388 2120.221191,1213.203491 
	C2121.044678,1211.967529 2121.770264,1210.883301 2122.496094,1209.799072 
	C2132.284424,1214.541260 2142.270508,1218.920776 2151.806152,1224.126099 
	C2161.672852,1229.512207 2171.114990,1235.678833 2180.718018,1241.544312 
	C2186.418701,1245.026123 2187.811768,1244.778687 2193.458740,1238.534180 
	C2189.533936,1249.374146 2185.956299,1261.134399 2180.652832,1272.056763 
	C2172.614014,1288.613037 2160.866455,1302.620728 2146.668945,1315.263672 
z"/>
<path fill="#E50E7A" opacity="1.000000" stroke="none" 
	d="
M2199.972656,1133.151367 
	C2199.433594,1122.282715 2191.524170,1117.717896 2182.234863,1112.147095 
	C2168.919922,1104.162354 2156.303467,1095.032593 2141.856689,1089.030518 
	C2138.840820,1087.777466 2135.587402,1087.097046 2131.525879,1085.196533 
	C2130.741211,1063.484253 2130.873779,1042.728516 2131.006592,1021.972717 
	C2132.492676,1018.793701 2133.978760,1015.614685 2136.050781,1011.182312 
	C2138.078857,1011.693237 2141.090332,1011.803650 2143.394287,1013.136780 
	C2159.475342,1022.441162 2175.307861,1032.177979 2191.451172,1041.369873 
	C2196.536865,1044.265869 2198.242676,1047.980591 2198.123291,1053.529053 
	C2197.894043,1064.171753 2198.019531,1074.824951 2198.160889,1085.471558 
	C2198.208984,1089.097046 2198.747314,1092.716064 2199.442139,1097.033447 
	C2199.934814,1109.226685 2200.046875,1120.724487 2199.972656,1133.151367 
z"/>
<path fill="#FB1D56" opacity="1.000000" stroke="none" 
	d="
M1715.748047,1016.187622 
	C1704.035889,1014.155640 1694.357788,1007.989014 1684.449829,1001.807861 
	C1672.962769,994.641541 1660.650635,988.797852 1647.933350,982.286621 
	C1645.169922,964.328125 1647.772827,946.880432 1652.156982,928.857666 
	C1656.654175,934.171387 1661.942871,938.865356 1668.506714,942.544373 
	C1680.347778,949.181030 1691.619873,956.836548 1703.491821,963.412415 
	C1707.946899,965.880188 1713.411621,966.525269 1719.240479,968.848694 
	C1719.212769,974.598511 1717.980469,979.470703 1717.586914,984.409729 
	C1716.744141,994.984070 1716.334839,1005.592896 1715.748047,1016.187622 
z"/>
<path fill="#CE1B90" opacity="1.000000" stroke="none" 
	d="
M1645.175659,1001.569580 
	C1645.749634,1007.473328 1645.783936,1013.774475 1645.717285,1020.956299 
	C1645.174316,1021.924133 1644.763916,1022.095337 1644.181030,1022.293091 
	C1644.196533,1015.479309 1644.416260,1008.723145 1645.175659,1001.569580 
z"/>
<path fill="#FB1D56" opacity="1.000000" stroke="none" 
	d="
M2194.623047,1235.919678 
	C2194.467529,1234.670410 2194.780762,1232.921631 2195.464600,1230.611938 
	C2195.587158,1231.840698 2195.339355,1233.630371 2194.623047,1235.919678 
z"/>
<path fill="#000000" opacity="1.000000" stroke="none" 
	d="
M1715.917480,1017.092041 
	C1716.334839,1005.592896 1716.744141,994.984070 1717.586914,984.409729 
	C1717.980469,979.470703 1719.212769,974.598511 1720.050049,968.856445 
	C1720.035156,968.016785 1719.989624,968.010437 1720.474854,967.574829 
	C1721.223877,965.432007 1721.487793,963.724731 1721.751709,962.017456 
	C1727.952393,950.010071 1733.933472,937.881104 1740.478882,926.064758 
	C1742.617798,922.203369 1746.007446,918.935120 1749.201904,915.776611 
	C1758.996582,906.091553 1769.297241,896.958496 1781.243774,889.969849 
	C1784.852661,887.858704 1788.979126,886.632202 1793.373291,884.514160 
	C1817.010010,875.483521 1841.092163,874.922058 1865.322266,875.418457 
	C1873.601440,875.588074 1881.888306,875.384094 1891.093628,875.159912 
	C1915.938232,875.133179 1939.861206,875.260315 1963.783203,875.491516 
	C1968.745117,875.539490 1973.703247,875.973755 1980.177734,876.791626 
	C1989.205688,878.131958 1996.799561,879.998108 2004.214844,879.449219 
	C2017.200562,878.487732 2029.153076,882.918762 2041.200806,885.762451 
	C2054.432617,888.885681 2066.912109,895.197571 2079.719238,900.120178 
	C2079.492432,900.443726 2079.265381,900.767212 2079.038086,901.090637 
	C2078.801025,900.874146 2078.564209,900.657776 2078.327148,900.441406 
	C2095.334473,909.755188 2106.465332,924.639465 2115.297363,941.159912 
	C2126.083252,961.335754 2131.624023,983.026550 2130.556885,1006.148743 
	C2130.342285,1010.801941 2130.586670,1015.476379 2130.812988,1021.056885 
	C2130.873779,1042.728516 2130.741211,1063.484253 2130.807617,1085.168457 
	C2130.883301,1104.318115 2130.760010,1122.539185 2130.652344,1142.455200 
	C2130.722168,1147.059448 2130.776611,1149.968872 2130.831055,1152.878296 
	C2130.652100,1153.205933 2130.472900,1153.533569 2130.121826,1155.106689 
	C2129.212891,1160.122803 2128.430908,1163.885132 2127.746826,1167.665405 
	C2124.996826,1182.860229 2119.187988,1197.545776 2120.123291,1213.355225 
	C2116.808105,1225.947388 2109.185547,1236.208984 2100.795410,1245.522095 
	C2093.082275,1254.083496 2083.649658,1261.096069 2074.617676,1269.316650 
	C2058.539551,1279.394165 2041.226929,1284.820068 2023.527100,1289.123413 
	C2021.237671,1289.680054 2018.565796,1288.663696 2014.886719,1288.454224 
	C2011.142212,1288.039551 2008.533813,1287.718994 2006.032104,1287.017212 
	C2000.990479,1285.603271 1996.540771,1286.758423 1992.389038,1289.674194 
	C1981.582397,1289.720703 1970.775879,1289.767090 1959.047363,1290.006104 
	C1931.234619,1290.049316 1904.343872,1289.882202 1877.452881,1289.757080 
	C1863.173218,1289.690674 1848.893188,1289.696899 1833.640381,1289.624512 
	C1832.667236,1289.578613 1832.789429,1289.745605 1832.789429,1289.745605 
	C1822.856079,1287.580811 1812.632324,1286.288574 1803.040405,1283.097412 
	C1765.165161,1270.497314 1739.068115,1245.153931 1724.385620,1208.091064 
	C1717.206787,1189.969604 1716.345703,1170.867554 1715.956055,1150.773926 
	C1715.920532,1131.200684 1716.111450,1112.552979 1716.144043,1093.905029 
	C1716.188354,1068.602295 1716.111572,1043.299316 1715.917480,1017.092041 
M2089.415039,1178.223877 
	C2089.542969,1146.155273 2089.670898,1114.086792 2090.166992,1080.172974 
	C2090.188721,1054.553345 2089.823730,1028.925537 2090.365234,1003.316956 
	C2090.742676,985.471558 2086.840088,969.079834 2076.810547,954.379883 
	C2060.895020,931.053284 2039.129517,917.373840 2010.485229,916.425903 
	C1990.546143,915.766052 1970.578735,915.851929 1950.623657,915.803650 
	C1914.023682,915.715088 1877.423462,915.747620 1840.823486,915.811035 
	C1837.207153,915.817322 1833.592041,916.388306 1828.622681,916.565308 
	C1827.729614,916.695435 1826.836548,916.825562 1824.980591,916.692078 
	C1824.468750,917.091736 1823.956787,917.491455 1821.920898,917.824463 
	C1804.268921,921.087708 1790.173096,930.601685 1778.332275,943.517639 
	C1769.342407,953.323608 1762.577148,964.584290 1759.051147,979.190369 
	C1758.205811,990.665771 1756.744263,1002.135681 1756.641724,1013.617737 
	C1756.420410,1038.388550 1756.897095,1063.165649 1756.651978,1089.775513 
	C1756.749756,1117.163818 1756.847656,1144.552246 1756.603516,1173.523804 
	C1757.396973,1183.110474 1759.776245,1192.194214 1764.155518,1200.855591 
	C1777.288696,1226.831177 1797.776001,1243.214966 1826.572876,1248.110474 
	C1836.613037,1249.817261 1846.998047,1249.859253 1857.233154,1249.972778 
	C1873.463623,1250.152832 1889.700562,1249.753662 1907.816406,1249.665039 
	C1921.733154,1249.899902 1935.651855,1250.059570 1949.565918,1250.403320 
	C1955.943848,1250.560791 1962.312988,1251.079956 1969.417236,1251.840576 
	C1970.276489,1251.523071 1971.135742,1251.205444 1973.822388,1252.411499 
	C1974.544678,1252.738892 1975.266968,1253.066284 1977.339233,1254.266846 
	C1982.553345,1254.316162 1987.890869,1253.681030 1992.949097,1254.593872 
	C1998.829956,1255.655151 2003.616089,1254.972656 2009.666138,1250.060913 
	C2015.192993,1248.718262 2020.719727,1247.375610 2027.794922,1246.085571 
	C2031.890869,1244.898804 2036.229858,1244.230347 2040.043579,1242.441650 
	C2066.788086,1229.899048 2083.514404,1209.377319 2089.415039,1178.223877 
z"/>
<path fill="#CE1B90" opacity="1.000000" stroke="none" 
	d="
M1832.745850,1289.730591 
	C1832.789429,1289.745605 1832.667236,1289.578613 1832.613403,1289.583496 
	C1832.559570,1289.588501 1832.702393,1289.715576 1832.745850,1289.730591 
z"/>
<path fill="#FC9039" opacity="1.000000" stroke="none" 
	d="
M2078.363281,900.521606 
	C2078.564209,900.657776 2078.801025,900.874146 2079.038086,901.090637 
	C2079.265381,900.767212 2079.492432,900.443726 2079.719238,900.120178 
	C2066.912109,895.197571 2054.432617,888.885681 2041.200806,885.762451 
	C2029.153076,882.918762 2017.200562,878.487732 2004.214844,879.449219 
	C1996.799561,879.998108 1989.205688,878.131958 1981.263794,877.086792 
	C1987.114258,876.733704 1993.419067,876.983948 1999.667236,876.500977 
	C2024.289551,874.597839 2046.957275,880.685791 2068.114502,892.944580 
	C2071.788330,895.073303 2074.983398,898.028381 2078.363281,900.521606 
z"/>
<path fill="#FB1D56" opacity="1.000000" stroke="none" 
	d="
M1721.394775,962.548950 
	C1721.487793,963.724731 1721.223877,965.432007 1720.490479,967.593750 
	C1720.359863,966.392334 1720.698853,964.736389 1721.394775,962.548950 
z"/>
<path fill="#FC9039" opacity="1.000000" stroke="none" 
	d="
M2120.221191,1213.203491 
	C2119.187988,1197.545776 2124.996826,1182.860229 2127.746826,1167.665405 
	C2128.430908,1163.885132 2129.212891,1160.122803 2130.086182,1155.665771 
	C2130.051025,1163.500244 2130.676025,1172.133667 2129.494873,1180.512451 
	C2128.174072,1189.883423 2125.216064,1199.023438 2122.733398,1209.031494 
	C2121.770264,1210.883301 2121.044678,1211.967529 2120.221191,1213.203491 
z"/>
<path fill="#CE1B90" opacity="1.000000" stroke="none" 
	d="
M2131.081055,1152.408325 
	C2130.776611,1149.968872 2130.722168,1147.059448 2130.827148,1143.421631 
	C2131.101562,1145.774902 2131.216309,1148.856689 2131.081055,1152.408325 
z"/>
<path fill="#CE1B90" opacity="1.000000" stroke="none" 
	d="
M1992.805664,1289.688843 
	C1996.540771,1286.758423 2000.990479,1285.603271 2006.032104,1287.017212 
	C2008.533813,1287.718994 2011.142212,1288.039551 2014.052246,1288.543457 
	C2007.342163,1288.937378 2000.282227,1289.320435 1992.805664,1289.688843 
z"/>
<path fill="#FB4A4B" opacity="1.000000" stroke="none" 
	d="
M1968.686035,1251.435059 
	C1962.312988,1251.079956 1955.943848,1250.560791 1949.565918,1250.403320 
	C1935.651855,1250.059570 1921.733154,1249.899902 1906.164551,1249.287109 
	C1902.553589,1248.624756 1900.546143,1247.913452 1898.643921,1248.129272 
	C1890.108643,1249.097412 1883.242065,1245.275879 1876.435303,1240.977295 
	C1865.245239,1233.910034 1854.102783,1226.756226 1842.729492,1219.993286 
	C1828.512207,1211.539185 1814.157349,1203.308838 1799.721802,1195.231934 
	C1785.554199,1187.305054 1771.211426,1179.691650 1756.945557,1171.940552 
	C1756.847656,1144.552246 1756.749756,1117.163818 1757.543213,1088.923706 
	C1760.293701,1088.706909 1762.316650,1089.058350 1763.986572,1090.021729 
	C1777.966553,1098.087280 1791.700562,1106.599487 1805.885376,1114.281616 
	C1814.196411,1118.782715 1823.194824,1122.014771 1832.382324,1126.311279 
	C1841.401611,1142.770630 1852.478638,1156.451782 1867.587158,1166.761841 
	C1882.369629,1176.849487 1898.846436,1182.169922 1916.605713,1185.245361 
	C1917.866699,1185.292603 1918.798462,1185.182251 1920.582764,1184.850586 
	C1924.940674,1184.765503 1928.446045,1184.901855 1932.344604,1185.523926 
	C1934.427368,1187.572388 1935.908081,1189.483398 1937.840088,1190.641968 
	C1951.468750,1198.814697 1965.173828,1206.861084 1978.886841,1214.892090 
	C1993.139771,1223.238892 2007.492188,1231.419189 2021.632202,1239.951904 
	C2023.656494,1241.173462 2024.731934,1243.966919 2026.246582,1246.032959 
	C2020.719727,1247.375610 2015.192993,1248.718262 2008.038818,1250.144165 
	C1999.104126,1250.081787 1991.797241,1249.868774 1984.489258,1249.821167 
	C1981.215576,1249.799805 1977.650635,1249.427856 1975.989258,1253.393799 
	C1975.266968,1253.066284 1974.544678,1252.738892 1972.775635,1251.442627 
	C1970.714600,1250.794189 1969.700317,1251.114624 1968.686035,1251.435059 
z"/>
<path fill="#E50E7A" opacity="1.000000" stroke="none" 
	d="
M1829.976318,916.697144 
	C1833.592041,916.388306 1837.207153,915.817322 1840.823486,915.811035 
	C1877.423462,915.747620 1914.023682,915.715088 1950.623657,915.803650 
	C1970.578735,915.851929 1990.546143,915.766052 2010.485229,916.425903 
	C2039.129517,917.373840 2060.895020,931.053284 2076.810547,954.379883 
	C2086.840088,969.079834 2090.742676,985.471558 2090.365234,1003.316956 
	C2089.823730,1028.925537 2090.188721,1054.553345 2089.586914,1080.398193 
	C2088.658203,1078.005493 2087.762207,1075.322998 2088.061279,1072.781372 
	C2089.042480,1064.442627 2085.158691,1060.059448 2077.739258,1056.854980 
	C2068.325439,1052.789185 2059.154541,1048.006348 2050.323975,1042.780762 
	C2038.364502,1035.703857 2026.926270,1027.749756 2015.032715,1020.555115 
	C2012.399658,1018.962219 2008.797729,1018.970703 2005.043213,1017.945435 
	C2002.076050,1015.314087 1999.637695,1013.045166 1997.350220,1010.633362 
	C1983.400391,995.925415 1966.313599,986.684021 1946.596924,982.762695 
	C1937.218750,980.897522 1927.500610,980.741089 1918.597412,979.426147 
	C1923.661011,978.260010 1928.063843,977.478210 1933.204468,976.565430 
	C1929.519653,968.972351 1923.914673,965.244385 1917.748047,961.844177 
	C1898.829102,951.412781 1879.784546,941.168335 1861.303345,929.999878 
	C1851.379639,924.002808 1842.307861,916.730530 1829.976318,916.697144 
M2051.540771,957.702942 
	C2038.620239,944.933655 2024.307739,946.846252 2014.345337,958.124817 
	C2005.691650,967.921692 2006.286255,982.677063 2016.182861,991.937012 
	C2027.139893,1002.188904 2043.235474,999.073059 2050.130859,991.225769 
	C2058.605713,981.580688 2060.778076,971.739075 2051.540771,957.702942 
z"/>
<path fill="#FB0461" opacity="1.000000" stroke="none" 
	d="
M1829.299561,916.631226 
	C1842.307861,916.730530 1851.379639,924.002808 1861.303345,929.999878 
	C1879.784546,941.168335 1898.829102,951.412781 1917.748047,961.844177 
	C1923.914673,965.244385 1929.519653,968.972351 1933.204468,976.565430 
	C1928.063843,977.478210 1923.661011,978.260010 1917.780884,979.587524 
	C1913.146484,980.808838 1910.010620,981.931702 1906.828735,982.082031 
	C1893.606201,982.706543 1881.760376,988.692017 1871.243286,995.022339 
	C1855.753296,1004.345825 1843.893799,1018.569641 1833.234009,1033.820068 
	C1827.875854,1031.876343 1822.918823,1030.624268 1818.658081,1028.165405 
	C1801.390991,1018.200562 1784.462769,1007.645264 1767.132690,997.794739 
	C1761.692383,994.702454 1759.526001,990.831909 1759.969482,984.918091 
	C1760.143066,982.602173 1759.989502,980.261780 1759.984741,977.932495 
	C1762.577148,964.584290 1769.342407,953.323608 1778.332275,943.517639 
	C1790.173096,930.601685 1804.268921,921.087708 1823.127808,917.780579 
	C1824.919922,917.577087 1825.456177,917.316772 1825.943481,916.955688 
	C1826.836548,916.825562 1827.729614,916.695435 1829.299561,916.631226 
z"/>
<path fill="#FB1D56" opacity="1.000000" stroke="none" 
	d="
M2027.020752,1246.059326 
	C2024.731934,1243.966919 2023.656494,1241.173462 2021.632202,1239.951904 
	C2007.492188,1231.419189 1993.139771,1223.238892 1978.886841,1214.892090 
	C1965.173828,1206.861084 1951.468750,1198.814697 1937.840088,1190.641968 
	C1935.908081,1189.483398 1934.427368,1187.572388 1933.185425,1185.329346 
	C1941.698608,1182.903931 1949.957275,1181.770752 1957.793213,1179.297974 
	C1980.762939,1172.049316 1998.061157,1157.106567 2012.161377,1138.482178 
	C2013.771851,1140.506714 2014.953125,1142.219849 2016.575928,1143.207397 
	C2035.890503,1154.960327 2055.321533,1166.522339 2074.597412,1178.338135 
	C2079.274658,1181.205200 2083.936768,1181.277954 2088.926514,1180.055664 
	C2083.514404,1209.377319 2066.788086,1229.899048 2040.043579,1242.441650 
	C2036.229858,1244.230347 2031.890869,1244.898804 2027.020752,1246.059326 
z"/>
<path fill="#FB0461" opacity="1.000000" stroke="none" 
	d="
M2089.170898,1179.139771 
	C2083.936768,1181.277954 2079.274658,1181.205200 2074.597412,1178.338135 
	C2055.321533,1166.522339 2035.890503,1154.960327 2016.575928,1143.207397 
	C2014.953125,1142.219849 2013.771851,1140.506714 2012.316772,1137.805176 
	C2029.056763,1108.732788 2032.924683,1079.410034 2021.444702,1048.915405 
	C2017.419434,1038.223145 2010.979370,1028.440063 2005.641968,1018.241821 
	C2008.797729,1018.970703 2012.399658,1018.962219 2015.032715,1020.555115 
	C2026.926270,1027.749756 2038.364502,1035.703857 2050.323975,1042.780762 
	C2059.154541,1048.006348 2068.325439,1052.789185 2077.739258,1056.854980 
	C2085.158691,1060.059448 2089.042480,1064.442627 2088.061279,1072.781372 
	C2087.762207,1075.322998 2088.658203,1078.005493 2089.402832,1081.320801 
	C2089.670898,1114.086792 2089.542969,1146.155273 2089.170898,1179.139771 
z"/>
<path fill="#FB1D56" opacity="1.000000" stroke="none" 
	d="
M1759.517944,978.561401 
	C1759.989502,980.261780 1760.143066,982.602173 1759.969482,984.918091 
	C1759.526001,990.831909 1761.692383,994.702454 1767.132690,997.794739 
	C1784.462769,1007.645264 1801.390991,1018.200562 1818.658081,1028.165405 
	C1822.918823,1030.624268 1827.875854,1031.876343 1833.291260,1034.580444 
	C1833.788574,1036.427734 1833.622925,1037.431641 1833.209595,1038.320190 
	C1820.548828,1065.542236 1819.145508,1093.113403 1830.533447,1121.115479 
	C1831.144287,1122.617554 1831.441162,1124.247314 1831.884033,1125.817627 
	C1823.194824,1122.014771 1814.196411,1118.782715 1805.885376,1114.281616 
	C1791.700562,1106.599487 1777.966553,1098.087280 1763.986572,1090.021729 
	C1762.316650,1089.058350 1760.293701,1088.706909 1757.761230,1088.006104 
	C1756.897095,1063.165649 1756.420410,1038.388550 1756.641724,1013.617737 
	C1756.744263,1002.135681 1758.205811,990.665771 1759.517944,978.561401 
z"/>
<path fill="#FC9039" opacity="1.000000" stroke="none" 
	d="
M1756.774536,1172.732178 
	C1771.211426,1179.691650 1785.554199,1187.305054 1799.721802,1195.231934 
	C1814.157349,1203.308838 1828.512207,1211.539185 1842.729492,1219.993286 
	C1854.102783,1226.756226 1865.245239,1233.910034 1876.435303,1240.977295 
	C1883.242065,1245.275879 1890.108643,1249.097412 1898.643921,1248.129272 
	C1900.546143,1247.913452 1902.553589,1248.624756 1905.223633,1249.254395 
	C1889.700562,1249.753662 1873.463623,1250.152832 1857.233154,1249.972778 
	C1846.998047,1249.859253 1836.613037,1249.817261 1826.572876,1248.110474 
	C1797.776001,1243.214966 1777.288696,1226.831177 1764.155518,1200.855591 
	C1759.776245,1192.194214 1757.396973,1183.110474 1756.774536,1172.732178 
z"/>
<path fill="#FC9039" opacity="1.000000" stroke="none" 
	d="
M1976.664307,1253.830322 
	C1977.650635,1249.427856 1981.215576,1249.799805 1984.489258,1249.821167 
	C1991.797241,1249.868774 1999.104126,1250.081787 2007.008057,1250.316406 
	C2003.616089,1254.972656 1998.829956,1255.655151 1992.949097,1254.593872 
	C1987.890869,1253.681030 1982.553345,1254.316162 1976.664307,1253.830322 
z"/>
<path fill="#FC9039" opacity="1.000000" stroke="none" 
	d="
M1969.051636,1251.637939 
	C1969.700317,1251.114624 1970.714600,1250.794189 1971.862061,1250.680786 
	C1971.135742,1251.205444 1970.276489,1251.523071 1969.051636,1251.637939 
z"/>
<path fill="#E50E7A" opacity="1.000000" stroke="none" 
	d="
M1825.462036,916.823853 
	C1825.456177,917.316772 1824.919922,917.577087 1823.889893,917.813904 
	C1823.956787,917.491455 1824.468750,917.091736 1825.462036,916.823853 
z"/>
<path fill="#000000" opacity="1.000000" stroke="none" 
	d="
M1832.382446,1126.311279 
	C1831.441162,1124.247314 1831.144287,1122.617554 1830.533447,1121.115479 
	C1819.145508,1093.113403 1820.548828,1065.542236 1833.209595,1038.320190 
	C1833.622925,1037.431641 1833.788574,1036.427734 1834.012451,1034.717285 
	C1843.893799,1018.569641 1855.753296,1004.345825 1871.243286,995.022339 
	C1881.760376,988.692017 1893.606201,982.706543 1906.828735,982.082031 
	C1910.010620,981.931702 1913.146484,980.808838 1917.120117,979.971924 
	C1927.500610,980.741089 1937.218750,980.897522 1946.596924,982.762695 
	C1966.313599,986.684021 1983.400391,995.925415 1997.350220,1010.633362 
	C1999.637695,1013.045166 2002.076050,1015.314087 2005.043213,1017.945435 
	C2010.979370,1028.440063 2017.419434,1038.223145 2021.444702,1048.915405 
	C2032.924683,1079.410034 2029.056763,1108.732788 2012.092773,1137.156738 
	C1998.061157,1157.106567 1980.762939,1172.049316 1957.793213,1179.297974 
	C1949.957275,1181.770752 1941.698608,1182.903931 1932.792236,1184.843750 
	C1928.446045,1184.901855 1924.940674,1184.765503 1920.017334,1184.657471 
	C1917.825073,1184.819702 1917.050659,1184.953735 1916.276367,1185.087769 
	C1898.846436,1182.169922 1882.369629,1176.849487 1867.587158,1166.761841 
	C1852.478638,1156.451782 1841.401611,1142.770630 1832.382446,1126.311279 
M1977.486572,1120.318481 
	C1977.818726,1119.580200 1978.151001,1118.841797 1979.610107,1117.364258 
	C1980.724854,1115.328491 1981.918213,1113.331421 1982.942749,1111.251221 
	C2003.992065,1068.514404 1973.906372,1019.268555 1926.190186,1018.054138 
	C1900.425659,1017.398438 1875.428711,1033.958740 1866.510498,1055.983521 
	C1861.730103,1065.038208 1860.532104,1074.861450 1860.804321,1084.857178 
	C1861.889282,1124.697632 1900.455688,1154.428223 1940.589844,1144.838135 
	C1955.631470,1141.243774 1967.864624,1133.520996 1976.536499,1120.603394 
	C1976.536499,1120.603394 1976.380859,1120.870239 1977.486572,1120.318481 
z"/>
<path fill="#FB1D56" opacity="1.000000" stroke="none" 
	d="
M1916.605713,1185.245361 
	C1917.050659,1184.953735 1917.825073,1184.819702 1919.164795,1184.878906 
	C1918.798462,1185.182251 1917.866699,1185.292603 1916.605713,1185.245361 
z"/>
<path fill="#000000" opacity="1.000000" stroke="none" 
	d="
M2052.126221,958.175293 
	C2060.778076,971.739075 2058.605713,981.580688 2050.130859,991.225769 
	C2043.235474,999.073059 2027.139893,1002.188904 2016.182861,991.937012 
	C2006.286255,982.677063 2005.691650,967.921692 2014.345337,958.124817 
	C2024.307739,946.846252 2038.620239,944.933655 2052.126221,958.175293 
z"/>
<path fill="#FB0461" opacity="1.000000" stroke="none" 
	d="
M1867.607544,1054.908325 
	C1875.428711,1033.958740 1900.425659,1017.398438 1926.190186,1018.054138 
	C1973.906372,1019.268555 2003.992065,1068.514404 1982.942749,1111.251221 
	C1981.918213,1113.331421 1980.724854,1115.328491 1978.608398,1118.120605 
	C1977.198120,1119.541382 1976.789429,1120.205811 1976.380859,1120.870117 
	C1976.380859,1120.870239 1976.536499,1120.603394 1975.921875,1120.415771 
	C1971.162720,1118.127808 1966.919800,1116.199707 1962.889526,1113.899048 
	C1938.078125,1099.735840 1913.236938,1085.621704 1888.581909,1071.190186 
	C1880.939453,1066.716797 1872.384399,1063.175049 1867.607544,1054.908325 
z"/>
<path fill="#FB1D56" opacity="1.000000" stroke="none" 
	d="
M1867.059082,1055.445923 
	C1872.384399,1063.175049 1880.939453,1066.716797 1888.581909,1071.190186 
	C1913.236938,1085.621704 1938.078125,1099.735840 1962.889526,1113.899048 
	C1966.919800,1116.199707 1971.162720,1118.127808 1976.049927,1120.502197 
	C1967.864624,1133.520996 1955.631470,1141.243774 1940.589844,1144.838135 
	C1900.455688,1154.428223 1861.889282,1124.697632 1860.804321,1084.857178 
	C1860.532104,1074.861450 1861.730103,1065.038208 1867.059082,1055.445923 
z"/>
<path fill="#FB1D56" opacity="1.000000" stroke="none" 
	d="
M1976.933594,1120.594238 
	C1976.789429,1120.205811 1977.198120,1119.541382 1978.045044,1118.490234 
	C1978.151001,1118.841797 1977.818726,1119.580200 1976.933594,1120.594238 
z"/>
</svg>